<?xml version="1.0" encoding="utf-8"?>
<!-- Generator: Adobe Illustrator 25.2.0, SVG Export Plug-In . SVG Version: 6.00 Build 0)  -->
<svg version="1.1" id="Layer_1" xmlns="http://www.w3.org/2000/svg" xmlns:xlink="http://www.w3.org/1999/xlink" x="0px" y="0px"
	 viewBox="0 0 512 512" style="enable-background:new 0 0 512 512;" xml:space="preserve">
<style type="text/css">
	.st0{fill-rule:evenodd;clip-rule:evenodd;fill:#CC2936;}
	.st1{fill-rule:evenodd;clip-rule:evenodd;fill:#296EB4;}
</style>
<g>
	<g>
		<path class="st0" d="M154.7,313.2c0,4.2-3.4,7.7-7.7,7.7c-4.2,0-7.7-3.4-7.7-7.7c0-32.2,13.1-61.4,34.2-82.5s50.3-34.2,82.5-34.2
			s61.4,13.1,82.5,34.2c21.1,21.1,34.2,50.3,34.2,82.5c0,4.2-3.4,7.7-7.7,7.7c-4.2,0-7.7-3.4-7.7-7.7c0-28-11.3-53.3-29.7-71.6
			c-18.3-18.3-43.6-29.7-71.6-29.7s-53.3,11.3-71.6,29.7C166.1,259.9,154.7,285.2,154.7,313.2z"/>
		<path class="st0" d="M263.7,163.1c0,4.2-3.4,7.7-7.7,7.7c-4.2,0-7.7-3.4-7.7-7.7V44.9c0-4.2,3.4-7.7,7.7-7.7
			c4.2,0,7.7,3.4,7.7,7.7V163.1z"/>
		<path class="st0" d="M302.2,170.2c-1.1,4.1-5.3,6.5-9.4,5.4c-4.1-1.1-6.5-5.3-5.4-9.4L299,123c1.1-4.1,5.3-6.5,9.4-5.4
			c4.1,1.1,6.5,5.3,5.4,9.4L302.2,170.2z"/>
		<path class="st0" d="M367.5,212.5c-3,3-7.9,3-10.9,0c-3-3-3-7.9,0-10.9l31.6-31.6c3-3,7.9-3,10.9,0c3,3,3,7.9,0,10.9L367.5,212.5z
			"/>
		<path class="st0" d="M402.9,281.7c-4.1,1.1-8.3-1.3-9.4-5.4c-1.1-4.1,1.3-8.3,5.4-9.4l43.2-11.6c4.1-1.1,8.3,1.3,9.4,5.4
			c1.1,4.1-1.3,8.3-5.4,9.4L402.9,281.7z"/>
		<path class="st0" d="M113,266.9c4.1,1.1,6.5,5.3,5.4,9.4c-1.1,4.1-5.3,6.5-9.4,5.4l-43.2-11.6c-4.1-1.1-6.5-5.3-5.4-9.4
			c1.1-4.1,5.3-6.5,9.4-5.4L113,266.9z"/>
		<path class="st0" d="M155.3,201.6c3,3,3,7.9,0,10.9c-3,3-7.9,3-10.9,0l-31.6-31.6c-3-3-3-7.9,0-10.9c3-3,7.9-3,10.9,0L155.3,201.6
			z"/>
		<path class="st0" d="M224.6,166.3c1.1,4.1-1.3,8.3-5.4,9.4c-4.1,1.1-8.3-1.3-9.4-5.4L198.2,127c-1.1-4.1,1.3-8.3,5.4-9.4
			c4.1-1.1,8.3,1.3,9.4,5.4L224.6,166.3z"/>
		<path class="st0" d="M337.6,187.1c-2.1,3.7-6.8,4.9-10.5,2.8c-3.7-2.1-4.9-6.8-2.8-10.5L383.5,77c2.1-3.7,6.8-4.9,10.5-2.8
			c3.7,2.1,4.9,6.8,2.8,10.5L337.6,187.1z"/>
		<path class="st0" d="M389.8,244.8c-3.7,2.1-8.3,0.9-10.5-2.8c-2.1-3.7-0.9-8.3,2.8-10.5l102.4-59.1c3.7-2.1,8.3-0.9,10.5,2.8
			c2.1,3.7,0.9,8.3-2.8,10.5L389.8,244.8z"/>
		<path class="st0" d="M129.9,231.5c3.7,2.1,4.9,6.8,2.8,10.5c-2.1,3.7-6.8,4.9-10.5,2.8L19.8,185.7c-3.7-2.1-4.9-6.8-2.8-10.5
			c2.1-3.7,6.8-4.9,10.5-2.8L129.9,231.5z"/>
		<path class="st0" d="M187.6,179.4c2.1,3.7,0.9,8.3-2.8,10.5c-3.7,2.1-8.3,0.9-10.5-2.8L115.2,84.7c-2.1-3.7-0.9-8.3,2.8-10.5
			c3.7-2.1,8.3-0.9,10.5,2.8L187.6,179.4z"/>
	</g>
	<g>
		<path class="st1" d="M32.6,344.9c-2.6-3.3-2.1-8.1,1.3-10.7c3.3-2.6,8.1-2.1,10.7,1.3c4.1,5.2,9,9.3,14.2,12.1c5,2.6,10.5,4,16,4
			c5.6,0,11-1.4,16-4c5.2-2.7,10-6.8,14.2-12.1c2.6-3.3,7.4-3.9,10.8-1.3c0.7,0.5,1.2,1.1,1.6,1.8c4,5,8.8,8.9,13.8,11.6
			c5,2.6,10.5,4,16,4c5.6,0,11-1.4,16-4c5.2-2.8,10.1-6.8,14.2-12.1c2.6-3.3,7.4-3.9,10.7-1.3c0.5,0.4,0.9,0.8,1.3,1.3
			c4.2,5.2,9,9.3,14.2,12c5,2.6,10.5,4,16,4c5.6,0,11-1.4,16-4c5.2-2.7,10-6.8,14.2-12.1c2.6-3.3,7.4-3.9,10.8-1.3
			c0.5,0.4,1,0.9,1.3,1.4c4.1,5.2,8.9,9.3,14.1,12c5,2.6,10.5,4,16,4c5.6,0,11-1.4,16-4c5.2-2.7,10-6.8,14.2-12.1
			c2.6-3.3,7.4-3.9,10.8-1.3c0.5,0.4,1,0.9,1.3,1.4c4.1,5.2,8.9,9.3,14.1,12c5,2.6,10.5,4,16,4c5.6,0,11-1.4,16-4
			c5.2-2.7,10-6.8,14.2-12.1c2.6-3.3,7.4-3.9,10.8-1.3c0.7,0.5,1.2,1.1,1.6,1.8c4,5,8.8,8.9,13.8,11.6c5,2.6,10.5,4,16,4
			c5.6,0,11-1.4,16-4c5.2-2.7,10-6.8,14.2-12.1c2.6-3.3,7.4-3.9,10.8-1.3c3.3,2.6,3.9,7.4,1.3,10.8c-5.5,6.9-12,12.4-19.1,16.1
			c-7.3,3.8-15.1,5.9-23.2,5.9c-8,0-15.9-2-23.2-5.8c-4.6-2.4-9-5.6-13.1-9.5c-4,3.9-8.4,7-13.1,9.5c-7.3,3.8-15.1,5.9-23.2,5.9
			s-15.9-2-23.2-5.9c-4.7-2.4-9-5.6-13.1-9.5c-4,3.9-8.4,7-13.1,9.5c-7.3,3.8-15.1,5.9-23.2,5.9c-8,0-15.9-2-23.2-5.9
			c-4.7-2.4-9-5.6-13.1-9.5c-4,3.9-8.4,7-13.1,9.5c-7.3,3.8-15.1,5.9-23.2,5.9c-8,0-15.9-2-23.2-5.9c-4.7-2.4-9.1-5.6-13.1-9.5
			c-4,3.9-8.4,7.1-13.1,9.5c-7.3,3.8-15.1,5.8-23.2,5.8c-8,0-15.9-2-23.2-5.8c-4.6-2.4-9-5.6-13.1-9.5c-4,3.9-8.4,7-13.1,9.5
			c-7.3,3.8-15.1,5.9-23.2,5.9c-8,0-15.9-2-23.2-5.8C44.6,357.3,38.1,351.9,32.6,344.9z"/>
		<path class="st1" d="M68.9,398.8c-2.6-3.3-2.1-8.1,1.3-10.7c3.3-2.6,8.1-2.1,10.7,1.3c4.1,5.2,9,9.3,14.2,12.1c5,2.6,10.5,4,16,4
			c5.6,0,11-1.4,16-4c5.2-2.7,10-6.8,14.2-12.1c2.6-3.3,7.4-3.9,10.8-1.3c0.7,0.5,1.2,1.1,1.6,1.8c4,5,8.8,8.9,13.8,11.6
			c5,2.6,10.5,4,16,4c5.6,0,11-1.4,16-4c5.2-2.8,10.1-6.8,14.2-12.1c2.6-3.3,7.4-3.9,10.7-1.3c0.5,0.4,0.9,0.8,1.3,1.3
			c4.2,5.2,9,9.3,14.2,12c5,2.6,10.5,4,16,4c5.6,0,11-1.4,16-4c5.2-2.7,10-6.8,14.2-12.1c2.6-3.3,7.4-3.9,10.8-1.3
			c0.5,0.4,1,0.9,1.3,1.4c4.1,5.2,8.9,9.3,14.1,12c5,2.6,10.5,4,16,4c5.6,0,11-1.4,16-4c5.2-2.7,10-6.8,14.2-12.1
			c2.6-3.3,7.4-3.9,10.8-1.3c0.5,0.4,1,0.9,1.3,1.4c4.1,5.2,8.9,9.3,14.1,12c5,2.6,10.5,4,16,4c5.6,0,11-1.4,16-4
			c5.2-2.7,10-6.8,14.2-12.1c2.6-3.3,7.4-3.9,10.8-1.3c3.3,2.6,3.9,7.4,1.3,10.8c-5.5,6.9-12,12.4-19.1,16.1
			c-7.3,3.8-15.1,5.9-23.2,5.9c-8,0-15.9-2-23.2-5.9c-4.7-2.4-9-5.6-13.1-9.5c-4,3.9-8.4,7-13.1,9.5c-7.3,3.8-15.1,5.9-23.2,5.9
			c-8,0-15.9-2-23.2-5.9c-4.7-2.4-9-5.6-13.1-9.5c-4,3.9-8.4,7-13.1,9.5c-7.3,3.8-15.1,5.9-23.2,5.9c-8,0-15.9-2-23.2-5.9
			c-4.7-2.4-9-5.6-13.1-9.5c-4,3.9-8.4,7.1-13.1,9.5c-7.3,3.8-15.1,5.8-23.2,5.8c-8,0-15.9-2-23.2-5.8c-4.6-2.4-9-5.6-13.1-9.5
			c-4,3.9-8.4,7-13.1,9.5c-7.3,3.8-15.1,5.9-23.2,5.9c-8,0-15.9-2-23.2-5.8C80.9,411.3,74.4,405.8,68.9,398.8z"/>
		<path class="st1" d="M141.3,452.8c-2.6-3.3-2.1-8.1,1.3-10.7c3.3-2.6,8.1-2.1,10.7,1.3c4.1,5.2,9,9.3,14.2,12.1c5,2.6,10.5,4,16,4
			c5.6,0,11-1.4,16-4.1c5.2-2.7,10-6.8,14.2-12.1c2.6-3.3,7.4-3.9,10.8-1.3c0.7,0.5,1.2,1.1,1.6,1.8c4,5,8.8,8.9,13.8,11.6
			c5,2.6,10.5,4,16,4c5.6,0,11-1.4,16-4c5.2-2.8,10.1-6.8,14.2-12.1c2.6-3.3,7.4-3.9,10.7-1.3c0.5,0.4,0.9,0.8,1.3,1.3
			c4.2,5.2,9,9.3,14.2,12c5,2.6,10.5,4.1,16,4.1c5.6,0,11-1.4,16-4.1c5.2-2.7,10-6.8,14.2-12.1c2.6-3.3,7.4-3.9,10.8-1.3
			c3.3,2.6,3.9,7.4,1.3,10.8c-5.5,6.9-12,12.4-19.1,16.1c-7.3,3.8-15.1,5.9-23.2,5.9c-8,0-15.9-2-23.2-5.9c-4.7-2.4-9-5.6-13.1-9.5
			c-4,3.9-8.4,7.1-13.1,9.5c-7.3,3.8-15.1,5.8-23.2,5.8c-8,0-15.9-2-23.2-5.8c-4.6-2.4-9-5.6-13.1-9.5c-4,3.9-8.4,7-13.1,9.5
			c-7.3,3.8-15.1,5.9-23.2,5.9c-8,0-15.9-2-23.2-5.8C153.3,465.2,146.8,459.8,141.3,452.8z"/>
	</g>
</g>
</svg>
