<?xml version="1.0" encoding="utf-8"?>
<!-- Generator: Adobe Illustrator 25.2.0, SVG Export Plug-In . SVG Version: 6.00 Build 0)  -->
<svg version="1.1" xmlns="http://www.w3.org/2000/svg" xmlns:xlink="http://www.w3.org/1999/xlink" x="0px" y="0px"
	 viewBox="0 0 300 300" style="enable-background:new 0 0 300 300;" xml:space="preserve">
<style type="text/css">
	.st0{fill-rule:evenodd;clip-rule:evenodd;fill:#CC2936;}
	.st1{fill-rule:evenodd;clip-rule:evenodd;fill:#296EB4;}
	.st2{fill:#1B1725;}
</style>
<g id="Layer_1">
</g>
<g id="Layer_2">
	<g>
		<g>
			<g>
				<path class="st0" d="M109,136.1c0,1.7-1.4,3.1-3.1,3.1c-1.7,0-3.1-1.4-3.1-3.1c0-13,5.3-24.8,13.8-33.4S137,88.9,150,88.9
					c13,0,24.9,5.3,33.4,13.8c8.5,8.5,13.8,20.3,13.8,33.4c0,1.7-1.4,3.1-3.1,3.1c-1.7,0-3.1-1.4-3.1-3.1c0-11.3-4.6-21.6-12-29
					c-7.4-7.4-17.7-12-29-12c-11.3,0-21.6,4.6-29,12C113.6,114.5,109,124.8,109,136.1z"/>
				<path class="st0" d="M153.1,75.4c0,1.7-1.4,3.1-3.1,3.1s-3.1-1.4-3.1-3.1V27.5c0-1.7,1.4-3.1,3.1-3.1s3.1,1.4,3.1,3.1V75.4z"/>
				<path class="st0" d="M168.7,78.2c-0.4,1.7-2.1,2.6-3.8,2.2c-1.7-0.4-2.6-2.1-2.2-3.8l4.7-17.5c0.4-1.7,2.1-2.6,3.8-2.2
					c1.7,0.4,2.6,2.1,2.2,3.8L168.7,78.2z"/>
				<path class="st0" d="M195.2,95.3c-1.2,1.2-3.2,1.2-4.4,0c-1.2-1.2-1.2-3.2,0-4.4l12.8-12.8c1.2-1.2,3.2-1.2,4.4,0
					c1.2,1.2,1.2,3.2,0,4.4L195.2,95.3z"/>
				<path class="st0" d="M209.5,123.4c-1.7,0.4-3.4-0.5-3.8-2.2c-0.4-1.7,0.5-3.4,2.2-3.8l17.5-4.7c1.7-0.4,3.4,0.5,3.8,2.2
					c0.4,1.7-0.5,3.4-2.2,3.8L209.5,123.4z"/>
				<path class="st0" d="M92.1,117.4c1.7,0.4,2.6,2.1,2.2,3.8c-0.4,1.7-2.1,2.6-3.8,2.2L73,118.7c-1.7-0.4-2.6-2.1-2.2-3.8
					c0.4-1.7,2.1-2.6,3.8-2.2L92.1,117.4z"/>
				<path class="st0" d="M109.2,90.9c1.2,1.2,1.2,3.2,0,4.4c-1.2,1.2-3.2,1.2-4.4,0L92,82.5c-1.2-1.2-1.2-3.2,0-4.4
					c1.2-1.2,3.2-1.2,4.4,0L109.2,90.9z"/>
				<path class="st0" d="M137.3,76.6c0.4,1.7-0.5,3.4-2.2,3.8c-1.7,0.4-3.4-0.5-3.8-2.2l-4.7-17.5c-0.4-1.7,0.5-3.4,2.2-3.8
					c1.7-0.4,3.4,0.5,3.8,2.2L137.3,76.6z"/>
				<path class="st0" d="M183.1,85c-0.9,1.5-2.8,2-4.2,1.1c-1.5-0.9-2-2.8-1.1-4.2l24-41.4c0.9-1.5,2.8-2,4.2-1.1
					c1.5,0.9,2,2.8,1.1,4.2L183.1,85z"/>
				<path class="st0" d="M204.2,108.4c-1.5,0.9-3.4,0.4-4.2-1.1c-0.9-1.5-0.4-3.4,1.1-4.2l41.5-23.9c1.5-0.9,3.4-0.4,4.2,1.1
					c0.9,1.5,0.4,3.4-1.1,4.2L204.2,108.4z"/>
				<path class="st0" d="M98.9,103c1.5,0.9,2,2.8,1.1,4.2c-0.9,1.5-2.8,2-4.2,1.1L54.3,84.5c-1.5-0.9-2-2.8-1.1-4.2
					c0.9-1.5,2.8-2,4.2-1.1L98.9,103z"/>
				<path class="st0" d="M122.3,81.9c0.9,1.5,0.4,3.4-1.1,4.2c-1.5,0.9-3.4,0.4-4.2-1.1L93,43.6c-0.9-1.5-0.4-3.4,1.1-4.2
					c1.5-0.9,3.4-0.4,4.2,1.1L122.3,81.9z"/>
			</g>
			<g>
				<path class="st1" d="M33.4,154.7c-1.4-1.7-1.1-4.2,0.7-5.6c1.7-1.4,4.2-1.1,5.6,0.7c2.2,2.7,4.7,4.9,7.4,6.3
					c2.6,1.4,5.5,2.1,8.4,2.1c2.9,0,5.7-0.7,8.4-2.1c2.7-1.4,5.2-3.6,7.4-6.3c1.4-1.7,3.9-2,5.6-0.7c0.3,0.3,0.6,0.6,0.9,0.9
					c2.1,2.6,4.6,4.7,7.2,6c2.6,1.4,5.5,2.1,8.4,2.1c2.9,0,5.7-0.7,8.4-2.1c2.7-1.4,5.3-3.6,7.4-6.3c1.4-1.7,3.9-2,5.6-0.7
					c0.3,0.2,0.5,0.4,0.7,0.7c2.2,2.7,4.7,4.9,7.4,6.3c2.6,1.4,5.5,2.1,8.4,2.1c2.9,0,5.7-0.7,8.4-2.1c2.7-1.4,5.2-3.6,7.4-6.3
					c1.4-1.7,3.9-2,5.6-0.7c0.3,0.2,0.5,0.5,0.7,0.7c2.2,2.7,4.7,4.8,7.4,6.2c2.6,1.4,5.5,2.1,8.4,2.1c2.9,0,5.7-0.7,8.4-2.1
					c2.7-1.4,5.2-3.6,7.4-6.3c1.4-1.7,3.9-2,5.6-0.7c0.3,0.2,0.5,0.5,0.7,0.7c2.2,2.7,4.7,4.8,7.4,6.2c2.6,1.4,5.5,2.1,8.4,2.1
					c2.9,0,5.7-0.7,8.4-2.1c2.7-1.4,5.2-3.6,7.4-6.3c1.4-1.7,3.9-2,5.6-0.7c0.3,0.3,0.6,0.6,0.9,0.9c2.1,2.6,4.6,4.7,7.2,6
					c2.6,1.4,5.5,2.1,8.4,2.1c2.9,0,5.7-0.7,8.4-2.1c2.7-1.4,5.2-3.6,7.4-6.3c1.4-1.7,3.9-2,5.6-0.7c1.7,1.4,2,3.9,0.7,5.6
					c-2.9,3.6-6.3,6.5-10,8.4c-3.8,2-7.9,3.1-12.1,3.1c-4.2,0-8.3-1.1-12.1-3c-2.4-1.3-4.7-2.9-6.8-5c-2.1,2-4.4,3.7-6.8,5
					c-3.8,2-7.9,3.1-12.1,3.1s-8.3-1.1-12.1-3.1c-2.4-1.3-4.7-2.9-6.8-4.9c-2.1,2-4.4,3.7-6.8,4.9c-3.8,2-7.9,3.1-12.1,3.1
					c-4.2,0-8.3-1.1-12.1-3.1c-2.4-1.3-4.7-2.9-6.8-4.9c-2.1,2-4.4,3.7-6.8,4.9c-3.8,2-7.9,3.1-12.1,3.1c-4.2,0-8.3-1.1-12.1-3.1
					c-2.4-1.3-4.7-2.9-6.8-4.9c-2.1,2-4.4,3.7-6.8,5c-3.8,2-7.9,3-12.1,3c-4.2,0-8.3-1.1-12.1-3c-2.4-1.3-4.7-2.9-6.8-5
					c-2.1,2-4.4,3.7-6.8,5c-3.8,2-7.9,3.1-12.1,3.1c-4.2,0-8.3-1.1-12.1-3C39.6,161.1,36.2,158.3,33.4,154.7z"/>
				<path class="st1" d="M52.3,182.8c-1.4-1.7-1.1-4.2,0.7-5.6c1.7-1.4,4.2-1.1,5.6,0.7c2.2,2.7,4.7,4.9,7.4,6.3
					c2.6,1.4,5.5,2.1,8.4,2.1c2.9,0,5.7-0.7,8.4-2.1c2.7-1.4,5.2-3.6,7.4-6.3c1.4-1.7,3.9-2,5.6-0.7c0.3,0.3,0.6,0.6,0.9,0.9
					c2.1,2.6,4.6,4.7,7.2,6c2.6,1.4,5.5,2.1,8.4,2.1c2.9,0,5.7-0.7,8.4-2.1c2.7-1.4,5.3-3.6,7.4-6.3c1.4-1.7,3.9-2,5.6-0.7
					c0.3,0.2,0.5,0.4,0.7,0.7c2.2,2.7,4.7,4.9,7.4,6.3c2.6,1.4,5.5,2.1,8.4,2.1c2.9,0,5.7-0.7,8.4-2.1c2.7-1.4,5.2-3.6,7.4-6.3
					c1.4-1.7,3.9-2,5.6-0.7c0.3,0.2,0.5,0.5,0.7,0.7c2.2,2.7,4.7,4.8,7.4,6.2c2.6,1.4,5.5,2.1,8.4,2.1c2.9,0,5.7-0.7,8.4-2.1
					c2.7-1.4,5.2-3.6,7.4-6.3c1.4-1.7,3.9-2,5.6-0.7c0.3,0.2,0.5,0.5,0.7,0.7c2.2,2.7,4.7,4.8,7.4,6.2c2.6,1.4,5.5,2.1,8.4,2.1
					c2.9,0,5.7-0.7,8.4-2.1c2.7-1.4,5.2-3.6,7.4-6.3c1.4-1.7,3.9-2,5.6-0.7c1.7,1.4,2,3.9,0.7,5.6c-2.9,3.6-6.3,6.5-10,8.4
					c-3.8,2-7.9,3.1-12.1,3.1c-4.2,0-8.3-1.1-12.1-3.1c-2.4-1.3-4.7-2.9-6.8-4.9c-2.1,2-4.4,3.7-6.8,4.9c-3.8,2-7.9,3.1-12.1,3.1
					c-4.2,0-8.3-1.1-12.1-3.1c-2.4-1.3-4.7-2.9-6.8-4.9c-2.1,2-4.4,3.7-6.8,4.9c-3.8,2-7.9,3.1-12.1,3.1c-4.2,0-8.3-1.1-12.1-3.1
					c-2.4-1.3-4.7-2.9-6.8-4.9c-2.1,2-4.4,3.7-6.8,5c-3.8,2-7.9,3-12.1,3c-4.2,0-8.3-1.1-12.1-3c-2.4-1.3-4.7-2.9-6.8-5
					c-2.1,2-4.4,3.7-6.8,5c-3.8,2-7.9,3.1-12.1,3.1c-4.2,0-8.3-1.1-12.1-3C58.5,189.3,55.1,186.4,52.3,182.8z"/>
				<path class="st1" d="M90.1,210.9c-1.4-1.7-1.1-4.2,0.7-5.6c1.7-1.4,4.2-1.1,5.6,0.7c2.2,2.7,4.7,4.9,7.4,6.3
					c2.6,1.4,5.5,2.1,8.4,2.1c2.9,0,5.7-0.7,8.4-2.1c2.7-1.4,5.2-3.6,7.4-6.3c1.4-1.7,3.9-2,5.6-0.7c0.3,0.3,0.6,0.6,0.9,0.9
					c2.1,2.6,4.6,4.7,7.2,6c2.6,1.4,5.5,2.1,8.4,2.1c2.9,0,5.7-0.7,8.4-2.1c2.7-1.4,5.3-3.6,7.4-6.3c1.4-1.7,3.9-2,5.6-0.7
					c0.3,0.2,0.5,0.4,0.7,0.7c2.2,2.7,4.7,4.9,7.4,6.3c2.6,1.4,5.5,2.1,8.4,2.1c2.9,0,5.7-0.7,8.4-2.1c2.7-1.4,5.2-3.6,7.4-6.3
					c1.4-1.7,3.9-2,5.6-0.7c1.7,1.4,2,3.9,0.7,5.6c-2.9,3.6-6.3,6.5-10,8.4c-3.8,2-7.9,3.1-12.1,3.1c-4.2,0-8.3-1.1-12.1-3.1
					c-2.4-1.3-4.7-2.9-6.8-4.9c-2.1,2-4.4,3.7-6.8,5c-3.8,2-7.9,3-12.1,3c-4.2,0-8.3-1.1-12.1-3c-2.4-1.3-4.7-2.9-6.8-5
					c-2.1,2-4.4,3.7-6.8,5c-3.8,2-7.9,3.1-12.1,3.1c-4.2,0-8.3-1.1-12.1-3C96.4,217.4,93,214.6,90.1,210.9z"/>
			</g>
		</g>
		<g>
			<path class="st2" d="M59.3,255.4l-0.1-6l-0.1-2.6c0-0.7,0.1-1.2,0.2-1.4c0.1-0.2,0.4-0.4,0.7-0.4c0.5,0,0.8,0.4,0.8,1.3l0,1.4
				l-0.1,4.7l-0.1,7.5l0.1,7.9l0.1,5.5c0,0.5-0.1,0.9-0.2,1c-0.1,0.2-0.3,0.3-0.6,0.3c-0.3,0-0.6-0.1-0.7-0.3
				c-0.1-0.2-0.2-0.6-0.2-1.1l0-1.8l0.1-10.6V257l-0.8,0l-4.1-0.1l-9.1,0.1l0,5.8l0.1,11.5h-13l0.1-18.3l-0.1-4.8l0-4.5l-0.1-1.2h13
				l0,1.1l-0.1,8.9c1.4,0.1,3.7,0.1,6.9,0.1C55.1,255.5,57.5,255.4,59.3,255.4z"/>
			<path class="st2" d="M73.8,263.4v6.6c0,1.3,0.1,2.1,0.2,2.4c0.3,0.6,1,1,2.1,1c1.6,0,3.3-0.4,4.9-1.3c1.6-0.9,3-2.1,4.2-3.7
				c0.4-0.5,0.7-0.9,0.8-1c0.2-0.1,0.4-0.2,0.5-0.2c0.2,0,0.4,0.1,0.6,0.3c0.2,0.2,0.2,0.4,0.2,0.7c0,0.6-0.5,1.4-1.4,2.4
				c-1.2,1.3-2.8,2.3-4.6,3.1c-1.8,0.8-3.6,1.2-5.4,1.2c-3,0-5.7-1-8-3c-1.3-1.2-2.4-2.6-3.1-4.4c-0.6-1.5-1-3-1-4.6
				c0-1.5,0.3-2.9,0.8-4.4c0.6-1.5,1.3-2.7,2.3-3.8c1.1-1.3,2.5-2.2,4.1-2.9c1.5-0.7,3.1-1,4.8-1c2.6,0,5,0.8,7.1,2.3
				c3.3,2.4,4.9,5.9,4.9,10.4H83l-6.3,0L73.8,263.4z M79.2,262v-6.2c0-1.3-0.1-2.1-0.1-2.4c0-0.3-0.1-0.5-0.3-0.7
				c-0.4-0.5-1.2-0.8-2.4-0.8c-1.2,0-2,0.3-2.3,0.9c-0.2,0.4-0.3,1.4-0.3,3v6.2l2.6,0.1L79.2,262z"/>
			<path class="st2" d="M105.8,261.7c2.8-4.2,4.8-7.4,6-9.6c0.5-0.7,0.7-1.2,0.8-1.3c0.1-0.1,0.3-0.2,0.5-0.2c0.3,0,0.5,0.1,0.8,0.3
				c0.2,0.2,0.3,0.5,0.3,0.7c0,0.2-0.1,0.5-0.4,0.8c-2,2.8-4.6,6.5-7.7,11.3l-3.7,5.7c-1.3,1.9-2.3,3.3-3.2,4.2
				c-0.6,0.6-1.4,1.1-2.2,1.5c-0.9,0.4-1.7,0.6-2.5,0.6c-0.8,0-1.4-0.2-1.9-0.5c-0.5-0.3-0.8-0.7-0.8-1.2c0-0.3,0.1-0.5,0.3-0.8
				c0.2-0.2,0.5-0.3,0.8-0.3c0.2,0,0.7,0.2,1.4,0.5c0.5,0.2,0.8,0.3,1.2,0.3c0.6,0,1.2-0.2,1.8-0.6c0.6-0.4,1.2-1,1.9-1.9l-2.5-3.9
				c-5.4-8.3-9-13.7-10.8-16.1h13.4c0.8,1.8,1.8,3.7,2.9,5.5C103.5,258.6,104.6,260.2,105.8,261.7z"/>
			<path class="st2" d="M145.7,246.8l-0.1,6.6l-0.1,6.3l0.1,14.5h-12.9l0.1-16.9l-0.1-5.7l-0.1-4.9l-2.8,0.1l-4,0.1l-0.6,0
				c-0.7,0-1-0.3-1-0.8c0-0.5,0.2-0.7,0.6-0.8c0.1,0,0.5,0,1-0.1h25.9c0.9,0,1.4,0.1,1.6,0.1c0.3,0.1,0.4,0.4,0.4,0.7
				c0,0.5-0.4,0.7-1.1,0.7l-1.8-0.1l-4.9-0.1H145.7z"/>
			<path class="st2" d="M164.7,257.7l0,8.1l0.1,8.4h-10.9l0-1.2l0-4.3l0.1-7.8l-0.1-8.6l0-1.2h10.8v4.4c1.6-1.7,2.7-2.8,3.4-3.3
				c1.5-1,2.8-1.5,4.1-1.5c0.8,0,1.4,0.2,2,0.5c0.5,0.3,0.8,0.8,0.8,1.3c0,0.4-0.2,0.7-0.5,1c-0.3,0.3-0.7,0.4-1.2,0.4
				c-0.3,0-0.6-0.1-1-0.3c-0.6-0.3-1.1-0.4-1.5-0.4c-1,0-2,0.3-2.9,1C166.9,255,165.9,256.1,164.7,257.7z"/>
			<path class="st2" d="M190.7,260.2v-2.6c0-1.8,0-2.9-0.1-3.3c0-0.4-0.2-0.8-0.4-1.1c-0.5-0.8-1.7-1.2-3.6-1.2
				c-2.9,0-5.1,0.9-6.7,2.7c-0.6,0.7-1.2,1.1-1.6,1.1c-0.3,0-0.6-0.1-0.8-0.3c-0.2-0.2-0.4-0.5-0.4-0.8c0-0.9,1-1.8,3.2-2.7
				c2-0.9,4.6-1.4,7.8-1.4c5.2,0,8.9,0.8,11,2.4c0.9,0.7,1.5,1.5,1.8,2.3c0.3,0.9,0.4,2.4,0.4,4.5v8.4c-0.1,1.6,0,2.7,0.1,3.5
				s0.5,1.6,1,2.5h-11.8V272c-1.3,0.9-2.6,1.6-3.9,2c-1.3,0.5-2.5,0.7-3.8,0.7c-2.1,0-4-0.6-5.6-1.8c-2.1-1.6-3.2-3.7-3.2-6.3
				c0-2.3,0.9-4.1,2.6-5.5c2-1.6,4.5-2.5,7.5-2.5c1.2,0,2.3,0.1,3.2,0.3C188.5,259.2,189.5,259.6,190.7,260.2z M190.7,261.7
				c-1.8-0.9-3.2-1.3-4.1-1.3c-0.8,0-1.4,0.3-1.6,1c-0.1,0.4-0.2,1.4-0.2,3.1v5.1c0,1.1,0,1.8,0.1,2c0.1,0.6,0.6,1,1.4,1
				c0.6,0,1.4-0.2,2.2-0.6c0.8-0.4,1.5-0.9,2.2-1.5L190.7,261.7z"/>
			<path class="st2" d="M222.1,263.5c3.3-5.8,5.3-9.6,6-11.4c0.4-0.8,0.6-1.3,0.8-1.6c0.2-0.2,0.4-0.3,0.7-0.3
				c0.3,0,0.5,0.1,0.8,0.2c0.2,0.2,0.3,0.3,0.3,0.5c0,0.2-0.2,0.6-0.5,1.1l-12.3,22.1l-0.7,1.2l-5.6-8.9l-1.9-2.9l-1.9-3l-1.7-2.6
				l-4.8-6.9h13.1l5.1,8.5L222.1,263.5z"/>
			<path class="st2" d="M239.2,263.4v6.6c0,1.3,0.1,2.1,0.2,2.4c0.3,0.6,1,1,2.1,1c1.6,0,3.3-0.4,4.9-1.3c1.6-0.9,3-2.1,4.2-3.7
				c0.4-0.5,0.7-0.9,0.8-1c0.2-0.1,0.4-0.2,0.5-0.2c0.2,0,0.4,0.1,0.6,0.3c0.2,0.2,0.2,0.4,0.2,0.7c0,0.6-0.5,1.4-1.4,2.4
				c-1.2,1.3-2.8,2.3-4.6,3.1c-1.8,0.8-3.6,1.2-5.4,1.2c-3,0-5.7-1-8-3c-1.3-1.2-2.4-2.6-3.1-4.4c-0.6-1.5-1-3-1-4.6
				c0-1.5,0.3-2.9,0.8-4.4c0.6-1.5,1.3-2.7,2.3-3.8c1.1-1.3,2.5-2.2,4.1-2.9c1.5-0.7,3.1-1,4.8-1c2.6,0,5,0.8,7.1,2.3
				c3.3,2.4,4.9,5.9,4.9,10.4h-4.9l-6.3,0L239.2,263.4z M244.6,262v-6.2c0-1.3-0.1-2.1-0.1-2.4c0-0.3-0.1-0.5-0.3-0.7
				c-0.4-0.5-1.2-0.8-2.4-0.8c-1.2,0-2,0.3-2.3,0.9c-0.2,0.4-0.3,1.4-0.3,3v6.2l2.6,0.1L244.6,262z"/>
			<path class="st2" d="M267.5,245.4l0,1.1l0,7.4l0,3.2l0,5.9l0.1,10.4v0.8h-10.8v-1l0-3.4l0-6.1l0.1-8l0-4.3l-0.1-4.7l0-1.4H267.5z
				"/>
		</g>
	</g>
</g>
</svg>
