<?xml version="1.0" encoding="utf-8"?>
<!-- Generator: Adobe Illustrator 25.2.3, SVG Export Plug-In . SVG Version: 6.00 Build 0)  -->
<svg version="1.1" id="Layer_1" xmlns="http://www.w3.org/2000/svg" xmlns:xlink="http://www.w3.org/1999/xlink" x="0px" y="0px"
	 viewBox="0 0 32.4 45" style="enable-background:new 0 0 32.4 45;" xml:space="preserve">
<style type="text/css">
	.st0{fill:#04A777;}
</style>
<path class="st0" d="M16.1,0.5L16.1,0.5C7.5,0.5,0.5,7.1,0.5,15.4c0,3.3,2,8.3,6.4,15.8c2.9,5.2,5.9,9.4,6.1,9.6l2.2,3.1
	c0.4,0.6,1.1,0.7,1.7,0.4c0.2,0,0.2-0.2,0.4-0.4l2.2-3.1c0-0.2,3.1-4.4,6.1-9.6c4.4-7.5,6.4-12.5,6.4-15.8
	C31.8,7.1,24.8,0.5,16.1,0.5z M16.1,23.7c-4.8,0-8.7-3.7-8.7-8.3s3.9-8.3,8.7-8.3s8.7,3.7,8.7,8.3S20.9,23.7,16.1,23.7z"/>
</svg>
